<?xml version="1.0" encoding="utf-8" standalone="no"?><!DOCTYPE svg PUBLIC "-//W3C//DTD SVG 20010904//EN" "http://www.w3.org/TR/2001/REC-SVG-20010904/DTD/svg10.dtd"><svg xmlns="http://www.w3.org/2000/svg" width="328" height="255" xmlns:xlink="http://www.w3.org/1999/xlink"><source><![CDATA[Producer->Filter: (range 1 5)
Note right of Filter: * 2
Filter-->Consumer: [2 4 6 8]]]></source><desc>Created with Raphaël 2.1.2</desc><defs><path id="raphael-marker-block" d="M5,0 0,2.5 5,5z" stroke-linecap="round"></path><marker refY="2.5" refX="2.5" orient="auto" markerWidth="5" markerHeight="5" id="raphael-marker-endblock55-obj4845"><use stroke="none" fill="#000" stroke-width="1.0000" transform="rotate(180 2.5 2.5) scale(1,1)" xlink:href="#raphael-marker-block"></use></marker><marker refY="2.5" refX="2.5" orient="auto" markerWidth="5" markerHeight="5" id="raphael-marker-endblock55-obj4851"><use stroke="none" fill="#000" stroke-width="1.0000" transform="rotate(180 2.5 2.5) scale(1,1)" xlink:href="#raphael-marker-block"></use></marker></defs><rect stroke-width="2" style="" stroke="#000000" fill="none" ry="0" rx="0" height="37" width="84" y="20" x="10"></rect><rect style="" stroke="none" fill="#ffffff" ry="0" rx="0" height="17" width="64" y="30" x="20"></rect><text fill="#000000" stroke="none" font-size="16px" font-family="Andale Mono, monospace" text-anchor="middle" y="38.5" x="52" style="text-anchor: middle; font-family: Andale Mono,monospace; font-size: 16px;"><tspan dy="6.5">Producer</tspan></text><rect stroke-width="2" style="" stroke="#000000" fill="none" ry="0" rx="0" height="37" width="84" y="198" x="10"></rect><rect style="" stroke="none" fill="#ffffff" ry="0" rx="0" height="17" width="64" y="208" x="20"></rect><text fill="#000000" stroke="none" font-size="16px" font-family="Andale Mono, monospace" text-anchor="middle" y="216.5" x="52" style="text-anchor: middle; font-family: Andale Mono,monospace; font-size: 16px;"><tspan dy="6.5">Producer</tspan></text><path stroke-width="2" d="M52,57L52,198" stroke="#000000" fill="none" style=""></path><rect stroke-width="2" style="" stroke="#000000" fill="none" ry="0" rx="0" height="37" width="68" y="20" x="126"></rect><rect style="" stroke="none" fill="#ffffff" ry="0" rx="0" height="17" width="48" y="30" x="136"></rect><text fill="#000000" stroke="none" font-size="16px" font-family="Andale Mono, monospace" text-anchor="middle" y="38.5" x="160" style="text-anchor: middle; font-family: Andale Mono,monospace; font-size: 16px;"><tspan dy="6.5">Filter</tspan></text><rect stroke-width="2" style="" stroke="#000000" fill="none" ry="0" rx="0" height="37" width="68" y="198" x="126"></rect><rect style="" stroke="none" fill="#ffffff" ry="0" rx="0" height="17" width="48" y="208" x="136"></rect><text fill="#000000" stroke="none" font-size="16px" font-family="Andale Mono, monospace" text-anchor="middle" y="216.5" x="160" style="text-anchor: middle; font-family: Andale Mono,monospace; font-size: 16px;"><tspan dy="6.5">Filter</tspan></text><path stroke-width="2" d="M160,57L160,198" stroke="#000000" fill="none" style=""></path><rect stroke-width="2" style="" stroke="#000000" fill="none" ry="0" rx="0" height="37" width="84" y="20" x="214"></rect><rect style="" stroke="none" fill="#ffffff" ry="0" rx="0" height="17" width="64" y="30" x="224"></rect><text fill="#000000" stroke="none" font-size="16px" font-family="Andale Mono, monospace" text-anchor="middle" y="38.5" x="256" style="text-anchor: middle; font-family: Andale Mono,monospace; font-size: 16px;"><tspan dy="6.5">Consumer</tspan></text><rect stroke-width="2" style="" stroke="#000000" fill="none" ry="0" rx="0" height="37" width="84" y="198" x="214"></rect><rect style="" stroke="none" fill="#ffffff" ry="0" rx="0" height="17" width="64" y="208" x="224"></rect><text fill="#000000" stroke="none" font-size="16px" font-family="Andale Mono, monospace" text-anchor="middle" y="216.5" x="256" style="text-anchor: middle; font-family: Andale Mono,monospace; font-size: 16px;"><tspan dy="6.5">Consumer</tspan></text><path stroke-width="2" d="M256,57L256,198" stroke="#000000" fill="none" style=""></path><rect style="" stroke="none" fill="#ffffff" ry="0" rx="0" height="17" width="88" y="73.5" x="62"></rect><text fill="#000000" stroke="none" font-size="16px" font-family="Andale Mono, monospace" text-anchor="middle" y="82" x="106" style="text-anchor: middle; font-family: Andale Mono,monospace; font-size: 16px;"><tspan dy="6.5">(range 1 5)</tspan></text><path stroke-dasharray="0" marker-end="url(#raphael-marker-endblock55-obj4845)" stroke-width="2" d="M52,94C52,94,133.7672233581543,94,155.00753723829985,94" stroke="#000000" fill="none" style=""></path><rect stroke-width="2" style="" stroke="#000000" fill="none" ry="0" rx="0" height="27" width="34" y="114" x="180"></rect><rect style="" stroke="none" fill="#ffffff" ry="0" rx="0" height="17" width="24" y="119" x="185"></rect><text fill="#000000" stroke="none" font-size="16px" font-family="Andale Mono, monospace" text-anchor="middle" y="127.5" x="197" style="text-anchor: middle; font-family: Andale Mono,monospace; font-size: 16px;"><tspan dy="6.5">* 2</tspan></text><rect style="" stroke="none" fill="#ffffff" ry="0" rx="0" height="17" width="72" y="157.5" x="172"></rect><text fill="#000000" stroke="none" font-size="16px" font-family="Andale Mono, monospace" text-anchor="middle" y="166" x="208" style="text-anchor: middle; font-family: Andale Mono,monospace; font-size: 16px;"><tspan dy="6.5">[2 4 6 8]</tspan></text><path stroke-dasharray="6,2" marker-end="url(#raphael-marker-endblock55-obj4851)" stroke-width="2" d="M160,178C160,178,231.30184173583984,178,251.00733119994402,178" stroke="#000000" fill="none" style=""></path></svg>