<?xml version="1.0" encoding="UTF-8" standalone="no"?>
<!-- Created with Inkscape (http://www.inkscape.org/) -->

<svg
   xmlns:dc="http://purl.org/dc/elements/1.1/"
   xmlns:cc="http://creativecommons.org/ns#"
   xmlns:rdf="http://www.w3.org/1999/02/22-rdf-syntax-ns#"
   xmlns:svg="http://www.w3.org/2000/svg"
   xmlns="http://www.w3.org/2000/svg"
   xmlns:sodipodi="http://sodipodi.sourceforge.net/DTD/sodipodi-0.dtd"
   xmlns:inkscape="http://www.inkscape.org/namespaces/inkscape"
   width="16px"
   height="16px"
   id="svg4391"
   version="1.1"
   inkscape:version="0.48.5 r10040"
   sodipodi:docname="新規ドキュメント 4">
  <defs
     id="defs4393">
    <clipPath
       clipPathUnits="userSpaceOnUse"
       id="clipPath4349">
      <rect
         style="fill:#ff0000;fill-opacity:1;stroke:#000000;stroke-width:0;stroke-linejoin:round;stroke-miterlimit:4;stroke-opacity:1;stroke-dasharray:none"
         id="rect4351"
         width="68.800003"
         height="72.800003"
         x="63.803982"
         y="-613.97607"
         transform="scale(1,-1)"
         ry="7.5942907" />
    </clipPath>
    <clipPath
       clipPathUnits="userSpaceOnUse"
       id="clipPath556">
      <path
         inkscape:connector-curvature="0"
         d="m 0,841.89 595.276,0 L 595.276,0 0,0 0,841.89 z"
         id="path558" />
    </clipPath>
  </defs>
  <sodipodi:namedview
     id="base"
     pagecolor="#ffffff"
     bordercolor="#666666"
     borderopacity="1.0"
     inkscape:pageopacity="0.0"
     inkscape:pageshadow="2"
     inkscape:zoom="22.197802"
     inkscape:cx="5.0827971"
     inkscape:cy="9.2976405"
     inkscape:current-layer="layer1"
     showgrid="true"
     inkscape:grid-bbox="true"
     inkscape:document-units="px"
     inkscape:window-width="1366"
     inkscape:window-height="747"
     inkscape:window-x="0"
     inkscape:window-y="21"
     inkscape:window-maximized="1" />
  <metadata
     id="metadata4396">
    <rdf:RDF>
      <cc:Work
         rdf:about="">
        <dc:format>image/svg+xml</dc:format>
        <dc:type
           rdf:resource="http://purl.org/dc/dcmitype/StillImage" />
        <dc:title></dc:title>
      </cc:Work>
    </rdf:RDF>
  </metadata>
  <g
     id="layer1"
     inkscape:label="Layer 1"
     inkscape:groupmode="layer">
    <g
       id="g552"
       transform="matrix(0,0.23255813,0.22741412,0,-123.07108,-14.838135)"
       clip-path="url(#clipPath4349)">
      <g
         id="g554"
         clip-path="url(#clipPath556)">
        <g
           id="g560"
           transform="translate(427.1543,30.7148)">
          <path
             d="m 0,0 c -1.045,5.937 -7.008,11.22 -12.619,12.72 0.674,0.531 1.346,1.062 2.018,1.593 -3.276,-0.502 -6.552,-1.006 -9.829,-1.508 2.51,-2.096 5.022,-4.192 7.532,-6.287 -0.218,1.088 -0.436,2.176 -0.654,3.264 C -8.213,8.276 -2.867,4.81 0,0"
             style="fill:#ffb007;fill-opacity:1;fill-rule:nonzero;stroke:none"
             id="path562"
             inkscape:connector-curvature="0" />
        </g>
        <g
           id="g564"
           transform="translate(103.5313,543.749)">
          <path
             d="M 0,0 29.788,32.802 0,65.604 l -11.928,0 24.89,-27.408 -51.512,0 0,-10.79 51.512,0 L -11.928,0 0,0 z"
             style="fill:#000000;fill-opacity:1;fill-rule:nonzero;stroke:none"
             id="path566"
             inkscape:connector-curvature="0" />
        </g>
        <g
           id="g568"
           transform="translate(214.8032,541.5723)">
          <path
             d="m 0,0 -0.964,0 -11.928,0 -4.918,0 3.307,3.641 21.582,23.765 -46.592,0 -2.177,0 0,2.177 0,10.79 0,2.179 2.177,0 46.592,0 -21.582,23.766 -3.307,3.642 4.918,0 11.928,0 L 0,69.96 0.648,69.245 30.435,36.441 31.764,34.979 30.435,33.515 0.648,0.713 0,0 z"
             style="fill:#ffffff;fill-opacity:1;fill-rule:nonzero;stroke:none"
             id="path570"
             inkscape:connector-curvature="0" />
        </g>
        <g
           id="g572"
           transform="translate(213.8394,543.749)">
          <path
             d="M 0,0 29.788,32.802 0,65.604 l -11.928,0 24.889,-27.408 -51.51,0 0,-10.79 51.51,0 L -11.928,0 0,0 z"
             style="fill:#000000;fill-opacity:1;fill-rule:nonzero;stroke:none"
             id="path574"
             inkscape:connector-curvature="0" />
        </g>
        <g
           id="g576"
           transform="translate(322.6582,435.7842)">
          <path
             d="M 0,0 29.788,32.802 0,65.604 l -11.927,0 24.889,-27.408 -51.511,0 0,-10.79 51.511,0 L -11.927,0 0,0 z"
             style="fill:#ff0606;fill-opacity:1;fill-rule:nonzero;stroke:none"
             id="path578"
             inkscape:connector-curvature="0" />
        </g>
        <g
           id="g580"
           transform="translate(211.9683,435.7842)">
          <path
             d="M 0,0 29.788,32.802 0,65.604 l -11.927,0 24.889,-27.408 -51.511,0 0,-10.79 51.511,0 L -11.927,0 0,0 z"
             style="fill:#00b1ff;fill-opacity:1;fill-rule:nonzero;stroke:none"
             id="path582"
             inkscape:connector-curvature="0" />
        </g>
        <g
           id="g584"
           transform="translate(101.2778,435.7842)">
          <path
             d="M 0,0 29.788,32.802 0,65.604 l -11.926,0 24.888,-27.408 -51.51,0 0,-10.79 51.51,0 L -11.926,0 0,0 z"
             style="fill:#ffcf00;fill-opacity:1;fill-rule:nonzero;stroke:none"
             id="path586"
             inkscape:connector-curvature="0" />
        </g>
        <g
           id="g588"
           transform="translate(546.29,543.749)">
          <path
             d="M 0,0 29.788,32.802 0,65.604 l -11.927,0 24.889,-27.408 -51.51,0 0,-10.79 51.51,0 L -11.927,0 0,0 z"
             style="fill:#82ec00;fill-opacity:1;fill-rule:nonzero;stroke:none"
             id="path590"
             inkscape:connector-curvature="0" />
        </g>
        <g
           id="g592"
           transform="translate(435.6006,543.749)">
          <path
             d="M 0,0 29.787,32.802 0,65.604 l -11.927,0 24.889,-27.408 -51.511,0 0,-10.79 51.511,0 L -11.927,0 0,0 z"
             style="fill:#9d00df;fill-opacity:1;fill-rule:nonzero;stroke:none"
             id="path594"
             inkscape:connector-curvature="0" />
        </g>
        <g
           id="g596"
           transform="translate(324.9111,543.749)">
          <path
             d="M 0,0 29.787,32.802 0,65.604 l -11.928,0 24.889,-27.408 -51.511,0 0,-10.79 51.511,0 L -11.928,0 0,0 z"
             style="fill:#ff00ae;fill-opacity:1;fill-rule:nonzero;stroke:none"
             id="path598"
             inkscape:connector-curvature="0" />
        </g>
        <g
           id="g600"
           transform="translate(433.3486,435.7842)">
          <path
             d="M 0,0 29.787,32.802 0,65.604 l -11.927,0 24.889,-27.408 -51.511,0 0,-10.79 51.511,0 L -11.927,0 0,0 z"
             style="fill:#dddede;fill-opacity:1;fill-rule:nonzero;stroke:none"
             id="path602"
             inkscape:connector-curvature="0" />
        </g>
      </g>
    </g>
  </g>
</svg>
