<?xml version="1.0" standalone="no"?>
<!DOCTYPE svg PUBLIC "-//W3C//DTD SVG 20010904//EN"
 "http://www.w3.org/TR/2001/REC-SVG-20010904/DTD/svg10.dtd">
<svg version="1.0" xmlns="http://www.w3.org/2000/svg"
 width="1449.000000pt" height="1449.000000pt" viewBox="0 0 1449.000000 1449.000000"
 preserveAspectRatio="xMidYMid meet">
<metadata>
Created by potrace 1.11, written by Peter Selinger 2001-2013
</metadata>
<g transform="translate(0.000000,1449.000000) scale(0.100000,-0.100000)"
fill="#000000" stroke="none">
<path d="M7180 12880 c-19 -4 -95 -37 -167 -73 -174 -88 -183 -88 -427 -8
-169 56 -186 59 -255 55 -83 -4 -87 -6 -197 -99 -63 -52 -86 -65 -114 -66 -19
0 -43 -2 -52 -4 -9 -2 -62 8 -118 21 -56 13 -114 26 -129 29 -47 9 -75 15
-133 29 -66 15 -154 12 -201 -7 -25 -11 -40 -30 -67 -86 -19 -39 -43 -74 -52
-76 -32 -11 -123 -13 -168 -5 -25 4 -67 11 -95 14 -52 6 -101 14 -145 22 -61
11 -181 16 -223 10 -78 -12 -82 -21 -62 -154 8 -52 -85 -58 -440 -25 -97 9
-204 5 -232 -9 -36 -17 -39 -37 -11 -68 26 -28 78 -103 78 -112 0 -19 -106
-27 -330 -24 -253 3 -340 -6 -340 -38 0 -7 35 -37 78 -67 42 -29 87 -61 100
-70 l23 -18 -28 -14 c-27 -14 -67 -18 -363 -32 -136 -7 -169 -11 -202 -23 -62
-25 -49 -36 130 -113 67 -29 122 -58 122 -65 0 -16 -49 -32 -120 -39 -30 -3
-71 -7 -90 -10 -19 -3 -57 -7 -85 -10 -27 -2 -66 -7 -85 -9 -19 -3 -55 -8 -80
-12 -25 -3 -56 -12 -69 -21 -20 -13 -21 -17 -9 -29 11 -11 91 -39 198 -69 166
-46 170 -48 170 -66 0 -11 -9 -20 -22 -23 -13 -3 -46 -10 -73 -16 -28 -6 -64
-13 -80 -15 -17 -2 -50 -8 -75 -14 -25 -5 -64 -12 -87 -16 -117 -17 -155 -57
-78 -81 22 -6 117 -26 210 -44 210 -39 205 -38 205 -59 0 -14 -32 -27 -168
-66 -171 -49 -217 -68 -206 -86 8 -14 51 -29 94 -35 19 -2 53 -6 75 -9 90 -12
113 -14 170 -20 32 -4 62 -8 65 -10 4 -2 30 -5 58 -6 38 -2 57 -8 72 -24 l20
-21 -38 -13 c-20 -8 -71 -29 -112 -47 -156 -70 -166 -79 -120 -101 34 -16 83
-22 220 -28 294 -13 322 -15 351 -31 l30 -15 -23 -18 c-13 -9 -58 -41 -100
-70 -43 -30 -78 -59 -78 -66 0 -13 41 -35 65 -35 24 0 18 -11 -32 -60 -142
-139 -299 -318 -443 -505 -105 -135 -96 -123 -234 -330 -384 -575 -661 -1252
-792 -1930 -2 -11 -6 -31 -9 -45 -2 -14 -7 -38 -9 -55 -3 -16 -12 -73 -20
-125 -8 -52 -18 -120 -21 -150 -3 -30 -8 -71 -10 -90 -2 -19 -7 -69 -10 -110
-3 -41 -8 -102 -11 -135 -7 -76 -7 -563 -1 -630 3 -27 8 -84 12 -125 8 -98 14
-167 20 -210 3 -19 7 -55 10 -80 5 -37 48 -299 61 -363 1 -10 24 -102 49 -205
111 -448 308 -943 530 -1332 199 -348 436 -678 700 -975 94 -106 362 -369 461
-452 27 -23 60 -51 74 -63 14 -12 45 -39 70 -59 25 -20 47 -39 50 -42 3 -3 61
-47 130 -98 255 -191 529 -360 819 -507 79 -40 145 -75 147 -77 2 -1 -36 5
-84 15 -48 9 -103 20 -122 23 -19 3 -51 10 -70 15 -19 5 -52 11 -72 14 -21 3
-59 11 -85 17 -27 6 -61 13 -78 16 -16 3 -88 18 -159 34 -72 16 -142 32 -157
34 -16 3 -41 10 -56 16 -15 6 -29 10 -31 9 -1 -1 -15 1 -30 4 -15 4 -36 8 -47
10 -92 18 -576 150 -790 216 -304 94 -688 231 -714 256 -12 11 -11 15 3 29 30
31 85 159 112 260 4 17 8 32 9 35 2 9 25 114 30 139 5 25 20 138 30 226 12
100 14 265 4 295 -17 49 -51 41 -257 -61 -101 -50 -200 -93 -221 -96 -33 -5
-38 -2 -50 23 -16 36 -32 83 -65 199 -54 184 -97 311 -115 334 -39 51 -80 29
-241 -125 -146 -139 -174 -164 -193 -164 -20 0 -145 60 -188 91 -15 10 -29 19
-32 19 -3 0 -53 32 -111 70 -58 39 -109 70 -113 70 -4 0 -16 9 -27 19 -12 10
-52 35 -89 55 -56 29 -72 34 -89 25 -18 -10 -20 -18 -15 -67 3 -32 15 -100 26
-152 51 -227 73 -350 77 -422 3 -76 3 -77 -29 -104 -17 -15 -52 -35 -77 -46
-47 -20 -207 -63 -275 -74 -148 -22 -219 -45 -235 -73 -9 -18 -4 -28 32 -68
24 -26 53 -56 66 -66 12 -10 28 -24 35 -30 7 -7 55 -50 107 -97 146 -131 190
-181 190 -215 0 -35 -61 -142 -135 -235 -41 -52 -75 -100 -75 -107 0 -86 211
-185 447 -209 32 -3 74 -7 93 -10 82 -10 513 -2 600 11 11 1 24 -24 46 -89 17
-50 34 -100 39 -111 160 -401 306 -671 508 -940 175 -232 332 -381 642 -605
94 -68 202 -147 241 -177 l72 -53 4244 0 4245 0 89 67 c49 37 91 69 94 73 3 3
21 17 40 30 19 13 37 27 40 30 3 3 61 50 130 104 126 100 281 229 354 296 58
52 283 276 341 340 48 52 221 267 258 320 168 240 283 445 373 665 20 50 37
91 38 92 1 2 18 -2 37 -7 85 -25 194 -8 439 71 136 44 383 131 395 139 6 4 28
13 50 20 22 7 61 23 88 37 l47 23 0 63 0 62 -95 94 c-52 51 -97 102 -101 113
-8 26 23 81 116 208 l80 108 0 136 c0 102 -3 136 -12 137 -14 0 -24 2 -142 18
-103 15 -166 42 -167 73 0 13 -2 32 -5 43 -2 11 -6 110 -9 220 -6 262 -10 296
-36 317 -19 16 -24 16 -57 2 -46 -19 -69 -37 -252 -194 -83 -72 -169 -142
-191 -156 -37 -23 -43 -24 -63 -11 -30 20 -78 113 -116 227 -18 52 -36 104
-40 115 -5 11 -14 38 -21 60 -28 93 -62 135 -100 120 -23 -9 -57 -77 -131
-268 -73 -189 -103 -253 -130 -281 -41 -40 -102 -41 -238 -1 -30 9 -63 18 -73
20 -10 2 -28 7 -39 11 -11 3 -35 3 -53 0 -45 -9 -55 -40 -50 -158 4 -117 53
-359 92 -458 33 -83 51 -146 45 -151 -4 -4 -27 -10 -52 -14 -25 -3 -52 -8 -60
-10 -8 -2 -31 -6 -50 -9 -19 -3 -80 -12 -135 -21 -148 -24 -147 -23 -190 -29
-109 -14 -205 -26 -255 -31 -30 -3 -66 -7 -80 -10 -14 -2 -45 -7 -70 -10 -53
-7 -303 -43 -340 -50 -14 -2 -68 -11 -120 -20 -52 -9 -104 -18 -115 -19 -11
-2 -60 -11 -110 -21 -49 -9 -101 -19 -115 -22 -14 -2 -65 -13 -115 -24 -49
-12 -101 -22 -115 -24 -33 -5 -206 -52 -222 -60 -22 -12 45 47 158 137 419
334 801 753 1114 1223 51 77 150 235 150 240 0 2 18 33 41 71 43 70 174 327
230 449 173 381 328 887 394 1283 3 17 7 44 10 60 18 112 30 200 41 317 3 39
8 78 10 87 21 114 20 774 -1 911 -2 12 -6 58 -10 102 -3 44 -10 105 -15 135
-5 30 -11 73 -14 95 -12 97 -28 187 -62 343 -180 838 -552 1606 -1100 2278
-94 115 -263 304 -341 381 -56 55 -61 63 -38 63 24 0 65 23 65 36 0 7 -28 32
-62 56 -35 23 -80 54 -101 69 l-38 28 28 15 c28 14 84 19 348 31 177 8 233 18
249 43 9 16 -14 29 -158 90 -135 58 -136 59 -116 77 12 11 26 20 33 21 7 1 43
5 80 8 37 4 76 9 85 10 9 2 49 7 87 10 39 4 81 9 95 11 14 2 45 7 70 10 24 4
52 11 62 16 20 11 24 34 8 44 -10 6 -110 37 -287 87 -55 16 -73 26 -73 39 0
19 10 23 80 35 25 4 47 8 50 9 30 7 83 17 175 35 117 22 155 36 155 56 0 18
-27 31 -80 39 -25 4 -47 8 -50 10 -3 2 -25 6 -50 10 -25 4 -47 8 -50 10 -3 2
-23 6 -45 9 -22 4 -47 8 -55 11 -18 5 -90 17 -107 18 -12 0 -29 34 -21 42 3 3
130 41 264 80 94 26 104 31 104 50 0 19 -26 32 -80 40 -25 3 -56 8 -70 10 -14
2 -54 6 -90 10 -36 4 -78 8 -95 10 -16 3 -57 7 -90 10 -71 7 -115 23 -115 40
0 7 35 27 78 44 118 49 207 95 206 106 -2 14 -47 35 -85 40 -17 2 -95 7 -173
11 -77 4 -157 8 -176 9 -19 2 -60 3 -90 4 -35 1 -63 8 -77 19 l-22 17 65 45
c37 25 81 55 100 68 43 28 43 46 2 63 -25 11 -98 14 -308 14 -256 0 -330 6
-330 25 0 4 23 38 50 75 28 38 49 73 47 79 -11 34 -117 46 -277 32 -19 -2 -80
-6 -135 -10 -55 -4 -120 -9 -144 -12 -24 -3 -68 0 -98 6 -43 9 -53 15 -49 28
3 9 7 45 11 80 l5 63 -37 15 c-52 22 -125 19 -353 -15 -210 -31 -302 -33 -328
-7 -9 9 -30 44 -47 78 -37 73 -58 86 -141 90 -54 2 -149 -8 -164 -17 -4 -2
-20 -7 -36 -9 -38 -7 -50 -10 -164 -36 -121 -27 -131 -28 -190 -19 -48 7 -58
14 -149 96 -54 50 -98 66 -175 68 -60 1 -93 -6 -244 -57 -236 -79 -253 -78
-415 3 -67 34 -131 65 -142 70 -27 12 -121 17 -165 9z m173 -264 c147 -20 204
-85 112 -129 -58 -27 -160 -40 -279 -34 -123 6 -171 17 -210 48 -63 49 -3 99
139 115 28 3 51 7 52 8 4 3 143 -2 186 -8z m-539 -205 c116 -38 229 -75 250
-82 57 -17 226 -19 299 -2 34 8 96 25 137 38 41 13 109 33 150 45 41 12 111
33 155 47 63 19 93 23 140 19 33 -3 98 -8 145 -11 47 -3 99 -8 115 -10 17 -2
64 -7 105 -10 41 -4 86 -9 100 -11 14 -2 50 -6 80 -10 52 -5 284 -38 350 -49
16 -3 45 -7 63 -10 17 -3 68 -13 112 -21 44 -9 94 -18 110 -21 168 -28 649
-162 770 -213 11 -5 60 -25 108 -45 49 -19 123 -53 164 -74 l75 -37 -38 -31
c-22 -16 -93 -68 -159 -114 -141 -98 -155 -110 -155 -125 0 -23 75 -64 125
-69 16 -1 128 -17 145 -20 9 -2 43 -6 75 -10 33 -4 67 -9 75 -10 25 -4 92 -14
145 -21 28 -3 59 -8 70 -9 11 -2 40 -6 65 -10 25 -3 53 -7 63 -9 30 -4 38 -21
42 -88 7 -112 22 -104 -196 -103 -105 0 -196 -3 -201 -6 -10 -6 -14 -25 -17
-81 -1 -14 -21 -5 -95 42 -161 101 -344 203 -510 284 l-159 78 31 20 c47 30
75 81 68 123 -19 101 -225 202 -541 266 -27 5 -65 12 -84 15 -18 3 -43 8 -55
10 -11 2 -41 7 -66 10 -25 3 -54 7 -65 9 -11 1 -54 6 -96 10 -41 4 -93 9 -115
12 -21 3 -901 7 -1954 9 -2181 4 -1945 3 -1938 9 8 9 338 107 398 119 14 2 77
17 140 31 63 15 126 29 140 31 218 41 304 55 400 69 63 8 126 17 140 20 14 2
45 7 70 9 25 3 63 7 85 10 102 12 214 22 330 31 49 4 91 7 92 8 1 1 25 3 54 4
42 2 94 -11 263 -66z m-2774 -596 c49 -8 89 -26 114 -50 21 -21 3 -60 -34 -75
-95 -39 -314 -48 -420 -17 -141 41 -116 121 45 142 28 4 52 9 53 10 6 5 194
-3 242 -10z m6650 1 c172 -21 222 -98 91 -140 -65 -21 -114 -27 -208 -27 -97
1 -141 7 -208 29 -59 20 -84 55 -59 84 23 25 99 48 179 55 39 3 71 6 72 7 3 3
85 -3 133 -8z m-5780 -100 l0 -94 -104 -51 c-215 -106 -474 -257 -664 -388
-89 -60 -96 -64 -154 -64 -55 -1 -64 2 -87 27 -38 41 -76 111 -94 171 -16 55
-16 188 0 204 8 8 94 23 253 44 25 3 52 8 60 10 8 2 40 6 70 9 30 4 66 8 80
10 14 2 47 7 73 11 118 16 182 33 206 57 33 30 31 33 -94 125 l-30 22 243 1
242 0 0 -94z m5590 -9371 c0 -8 -9 -15 -20 -15 -17 0 -19 2 -8 15 17 19 28 19
28 0z"/>
</g>
</svg>
